<svg xmlns="http://www.w3.org/2000/svg" enable-background="new 0 0 2259.822 2100" viewBox="0 0 2259.822 2100"><circle cx="1699.546" cy="544.679" r="82.168" fill="#f2a25c"/><path fill="#fff" d="m1752.216 525.794-30.663.127a3.417 3.417 0 0 1-3.431-3.403l-.127-30.663a3.417 3.417 0 0 0-3.431-3.403l-30.499.126a3.417 3.417 0 0 0-3.403 3.431l.127 30.663a3.417 3.417 0 0 1-3.403 3.431l-30.663.127a3.417 3.417 0 0 0-3.403 3.431l.127 30.499a3.417 3.417 0 0 0 3.431 3.403l30.663-.127a3.418 3.418 0 0 1 3.432 3.403l.127 30.663a3.417 3.417 0 0 0 3.431 3.403l30.499-.127a3.417 3.417 0 0 0 3.403-3.431l-.127-30.663a3.417 3.417 0 0 1 3.403-3.431l30.663-.127a3.417 3.417 0 0 0 3.403-3.431l-.126-30.499a3.42 3.42 0 0 0-3.433-3.402z"/><path fill="#5cbec6" d="M1853.107 440.766c27.386-12.988 46.438-40.916 46.438-73.28 0-44.812-36.371-81.184-81.184-81.184-38.426 0-70.684 26.845-79.017 62.782a78.569 78.569 0 0 0-2.166 18.402c0 25.761 12.123 48.71 30.85 63.539a72.406 72.406 0 0 0 15.586 9.741c-3.68 1.085-7.359 2.276-10.933 3.79a123.564 123.564 0 0 0-28.451 15.621 95.322 95.322 0 0 1 22.897 16.92c8.773 8.773 15.662 18.993 20.477 30.375 4.987 11.792 7.516 24.309 7.516 37.206s-2.529 25.415-7.516 37.206c-4.814 11.383-11.704 21.602-20.477 30.375a96.476 96.476 0 0 1-8.409 7.481 249.558 249.558 0 0 0 38.967 6.244c6.818.539 13.746.862 20.675.862 12.231 0 24.355-.862 36.045-2.598 32.148-4.543 62.35-15.261 89.41-30.955v-32.052c.001-57.259-38.317-105.427-90.708-120.475z"/><path fill="#ffe164" d="m656.161 1005.105-10.524-1.856c.575-5.789.842-11.668.76-17.624a155.584 155.584 0 0 0-.762-13.291l10.527-1.856c5.554-.979 9.844-5.697 9.889-11.336.059-7.463-6.648-12.844-13.647-11.609l-10.812 1.906a154.132 154.132 0 0 0-10.621-29.02l9.31-5.375c4.884-2.82 7.302-8.72 5.415-14.034-2.497-7.033-10.64-9.795-16.795-6.242l-9.603 5.544a157.088 157.088 0 0 0-19.871-23.621l6.971-8.307c3.625-4.32 3.88-10.691.289-15.04-4.752-5.755-13.348-5.566-17.917-.121l-7.133 8.501a155.729 155.729 0 0 0-26.711-15.503l3.674-10.094c1.929-5.299-.011-11.374-4.873-14.232-6.433-3.782-14.447-.664-16.877 6.014l-3.756 10.32a153.893 153.893 0 0 0-30.441-5.376v-10.691c0-5.64-3.901-10.684-9.447-11.707-7.339-1.354-13.803 4.317-13.803 11.424v10.973a154.454 154.454 0 0 0-30.45 5.354l-3.651-10.03c-1.929-5.299-7.319-8.706-12.881-7.77-7.36 1.238-11.494 8.777-9.063 15.456l3.755 10.319a155.44 155.44 0 0 0-26.738 15.495l-6.909-8.234c-3.625-4.32-9.856-5.677-14.762-2.896-6.492 3.68-7.799 12.179-3.231 17.623l7.103 8.465a156.535 156.535 0 0 0-19.875 23.649l-9.303-5.371c-4.884-2.82-11.203-1.964-14.862 2.328-4.842 5.679-3.163 14.112 2.992 17.665l9.515 5.493a154.25 154.25 0 0 0-10.601 29.04l-10.512-1.854c-5.554-.979-11.199 1.986-13.17 7.27-2.608 6.992 1.854 14.343 8.853 15.577l10.803 1.905a156.905 156.905 0 0 0-.76 17.624c.061 4.478.326 8.909.762 13.291l-10.527 1.856c-5.554.979-9.844 5.697-9.889 11.336-.059 7.463 6.648 12.843 13.647 11.609l10.812-1.907a154.132 154.132 0 0 0 10.621 29.02l-9.31 5.375c-4.884 2.82-7.302 8.72-5.415 14.034 2.497 7.033 10.64 9.795 16.794 6.242l9.603-5.544a157.088 157.088 0 0 0 19.871 23.621l-6.97 8.307c-3.625 4.32-3.879 10.692-.289 15.04 4.752 5.755 13.348 5.566 17.917.121l7.133-8.501a155.729 155.729 0 0 0 26.711 15.503l-3.674 10.094c-1.929 5.299.011 11.374 4.873 14.232 6.433 3.782 14.447.664 16.877-6.014l3.756-10.321a153.966 153.966 0 0 0 30.441 5.376v10.69c0 5.64 3.901 10.684 9.447 11.707 7.339 1.354 13.803-4.317 13.803-11.424v-10.974a154.467 154.467 0 0 0 30.45-5.354l3.651 10.031c1.929 5.299 7.32 8.705 12.881 7.77 7.36-1.238 11.494-8.777 9.063-15.456l-3.756-10.318a155.458 155.458 0 0 0 26.737-15.495l6.909 8.234c3.625 4.32 9.856 5.677 14.762 2.896 6.492-3.68 7.799-12.179 3.231-17.623l-7.103-8.465a156.642 156.642 0 0 0 19.875-23.649l9.303 5.371c4.884 2.82 11.203 1.964 14.862-2.328 4.842-5.679 3.163-14.112-2.992-17.665l-9.515-5.493a154.25 154.25 0 0 0 10.601-29.04l10.791 1.903c6.999 1.234 13.706-4.147 13.647-11.609-.041-5.637-4.332-10.354-9.886-11.334zm-165.132 36.782c-29.876 0-54.095-24.219-54.095-54.095 0-29.876 24.219-54.095 54.095-54.095 29.876 0 54.095 24.219 54.095 54.095-.001 29.876-24.22 54.095-54.095 54.095z"/><path fill="#ff5f4a" d="m953.706 909.363 18.757-75.232-46.993-11.717c.057-1.877.095-3.758.095-5.648 0-6.209-.314-12.346-.921-18.397l46.047-14.961-23.959-73.741-46.1 14.979a183.996 183.996 0 0 0-21.253-29.271l29.479-44.98-64.849-42.501-27.263 41.599a181.479 181.479 0 0 0-35.409-11.578v-48.416H703.8v48.416a181.4 181.4 0 0 0-23.129 6.637l-25.66-41.064-65.753 41.089 25.714 41.15a184.416 184.416 0 0 0-16.081 17.83l-43.595-21.263-33.988 69.689 43.516 21.224a181.996 181.996 0 0 0-4.171 23.698l-48.16 5.062 8.106 77.111 48.154-5.061a181.85 181.85 0 0 0 9.03 22.296l-38.173 29.824 47.737 61.098 38.228-29.867a184.028 184.028 0 0 0 19.415 14.141l-16.582 45.558 72.86 26.519 16.561-45.501a183.77 183.77 0 0 0 24.001 1.669l10.069 47.372 75.841-16.12-10.069-47.372a182.56 182.56 0 0 0 21.205-11.331l33.679 34.876 55.774-53.861-33.682-34.879a182.964 182.964 0 0 0 12.045-20.798l47.014 11.722zM742.568 711.304c58.152 0 105.461 47.309 105.461 105.461s-47.31 105.462-105.461 105.462c-58.152 0-105.461-47.31-105.461-105.462s47.31-105.461 105.461-105.461z"/><path fill="#54678c" d="M1221.606 865.442s-5.044 67.008-92.883 58.097c-105.471-10.7-137.881-85.86-99.58-116.708s151.289-44.698 180.015-19.778c28.726 24.919 12.448 78.389 12.448 78.389z"/><ellipse cx="1386.586" cy="1972.991" fill="#5cbec6" rx="362.211" ry="14.724"/><path fill="#404859" d="M1271.313 1951.861c12.772-5.592 14.396-16.964 19.832-27.749.366-.727 2.467-16.219 2.482-17.455.065-5.344 15.512-19.538 22.707-8.408 14.183 21.939 29.733-12.344 28.91-3.187-2.45 27.256 10.059 71.205-.093 74.186-21.627 6.351-122.571 13.733-124.484 3.132-1.149-6.363 28.559-10.848 50.646-20.519zM1488.351 1951.861c12.772-5.592 14.396-16.964 19.832-27.749.367-.727 2.467-16.219 2.482-17.455.065-5.344 15.512-19.538 22.707-8.408 14.183 21.939 29.733-12.344 28.91-3.187-2.45 27.256 10.059 71.205-.093 74.186-21.627 6.351-122.571 13.733-124.484 3.132-1.15-6.363 28.558-10.848 50.646-20.519z"/><path fill="#7f635d" d="M1516.451 951.601c-25.505-56.333-219.435-129.418-270.591-141.456-3.743 56.725-29.909 92.062-60.867 153.249-43.277 85.535 75.219 946.512 75.219 946.512s15.169 11.725 51.39 11.725c46.388 0 54.763-11.725 54.763-11.725l-26.636-799.621 138.792 799.621s6.974 7.804 52.95 11.268c42.174 3.177 48.882-11.268 48.882-11.268s-34.646-893.687-63.902-958.305z"/><path fill="#4c3b38" d="m1529.527 1027.208-324.458 7.523s79.129 45.964 211.02 56.121c50.87 3.917 90.637 6.073 120.321 7.244-2.28-26.466-4.58-50.352-6.883-70.888z"/><path fill="#54678c" d="M1536.505 828.88c8.578-124.377 31.087-193.083 19.217-235.533-15.22-54.429-94.84-91.531-140.403-97.855-37.475-5.202-129.51-2.035-162.859 21.321-53.485 37.458-84.78 501.406-84.78 501.406s43.915 29.04 166.412 44.657c159.6 20.347 213.648 0 213.648 0s-21.408-86.478-11.235-233.996z"/><path fill="#434a59" d="M1539.178 1009.304c-2.475-21.945-4.669-50.294-5.257-84.403l-138.057-61.811c-.001-.001 60.192 114.802 143.314 146.214z"/><path fill="#c6c0ba" d="m1251.373 822.982 173.036-20.329-.664 6.891c-.495 5.143-170.964 25.19-170.964 25.19a25.198 25.198 0 0 1-5.137.031L888.585 800.24c-6.632-.639-11.491-6.533-10.852-13.165l.002-.022 373.638 35.929z"/><path fill="#e2ddd7" d="m1424.409 802.653-173.036 20.329-373.637-35.93 173.035-20.328z"/><path fill="#c6c0ba" d="M1250.62 834.709 884.728 800.88a8.615 8.615 0 0 1-7.822-8.566l-.351-253.389c-.013-9.579 7.741-17.356 17.321-17.369l339.013 34.599c9.579-.013 17.355 7.741 17.369 17.321l.362 261.233z"/><path fill="#fff" d="M1051.157 676.34c.845 12.324-5.756 23.063-14.743 23.987-8.987.924-16.957-8.317-17.802-20.641-.844-12.324 5.756-23.063 14.743-23.987 8.987-.924 16.957 8.317 17.802 20.641z"/><path fill="#4c3b38" d="M1339.727 1112.857a2.572 2.572 0 0 1-2.568-2.485c-.564-16.981-18.5-39.996-18.682-40.227a2.57 2.57 0 0 1 4.042-3.177c.782.994 19.157 24.565 19.779 43.234a2.57 2.57 0 0 1-2.484 2.654l-.087.001zM1558.161 1894.497a1.028 1.028 0 0 1-1.003-1.26c.044-.19 4.346-19.276-.011-44.801-3.112-18.221-1.924-44.801-.876-68.251.443-9.909.86-19.268.86-26.605 0-14.31-1.581-35.303-2.976-53.825-.951-12.624-1.849-24.549-2.107-32.564-.338-10.484-4.381-67.061-8.291-121.774-3.462-48.458-7.042-98.565-8.229-119.039-.52-8.963-1.331-22.469-2.294-38.486-3.659-60.854-9.782-162.706-9.782-181.441 0-23.198-8.175-116.004-8.257-116.939a1.029 1.029 0 0 1 2.049-.181c.082.935 8.265 93.831 8.265 117.12 0 18.674 6.12 120.487 9.778 181.319.963 16.018 1.775 29.525 2.295 38.491 1.186 20.459 4.766 70.56 8.228 119.01 4.091 57.252 7.955 111.33 8.294 121.854.258 7.971 1.154 19.873 2.103 32.476 1.398 18.558 2.982 39.592 2.982 53.98 0 7.384-.419 16.765-.863 26.697-1.043 23.348-2.226 49.811.847 67.814 4.431 25.957.033 45.417-.012 45.611a1.026 1.026 0 0 1-1 .794zM1345.917 1899.493c-.568 0-1.028-.46-1.028-1.028v-59.734c0-1.526.038-5.073.092-10.232 1.357-127.119-.803-203.342-6.418-226.551-9.748-40.288-18.562-225.131-19.092-241.046-.16-4.766-1.096-15.295-2.282-28.627-3.602-40.496-9.631-108.275-5.334-139.309 5.645-40.776 7.596-102.952 7.616-103.575.016-.567.504-1.026 1.058-.996.568.017 1.014.491.997 1.059-.019.624-1.974 62.908-7.636 103.794-4.265 30.802 1.752 98.435 5.346 138.844 1.189 13.364 2.128 23.919 2.288 28.742.53 15.897 9.326 200.498 19.036 240.631 5.655 23.375 7.833 99.768 6.476 227.057-.054 5.148-.092 8.687-.092 10.21v59.734a1.025 1.025 0 0 1-1.027 1.027z"/><path fill="#f27872" d="M979.142 825.328c11.382 6.49 73.606 7.944 73.606 7.944s4.427-19.532-12.071-29.47c-8.174-4.924-24.938-5.482-24.938-5.482s-.623-2.41-14.259-3.638c-9.542-.859-11.403 6.697-11.661 11.313-.491-3.617-2.49-9.331-9.792-13.248-11.432-6.132-12.267 26.09-.885 32.581z"/><path fill="#54678c" d="M1547.391 574.126s201.066 270.682 145.958 378.745c-59.265 116.216-356.518-85.909-339.78-131.389 3.871-10.52 47.3-60.409 47.3-60.409l190.743 100.871s-95.167-149.638-90.927-220.006c3.661-60.767 46.706-67.812 46.706-67.812z"/><path fill="#434a59" d="M1653.747 911.984a3.704 3.704 0 0 1-3.314-2.049c-12.769-25.535-59.712-44.358-60.182-44.547a3.703 3.703 0 0 1 2.722-6.886c2.038.806 50.045 20.049 64.081 48.122a3.702 3.702 0 0 1-1.655 4.966 3.676 3.676 0 0 1-1.652.394zM1541.601 775.393c-.941 0-1.865-.44-2.45-1.265-46.311-65.327-61.34-166.74-61.486-167.757a3 3 0 0 1 2.542-3.397 3.007 3.007 0 0 1 3.397 2.542c.145 1.002 14.979 101.012 60.441 165.142a3 3 0 0 1-2.444 4.735z"/><path fill="#ff867a" d="M1375.77 779.177s-47.63-33.775-56.858-25.142c-9.228 8.633-33.612 26.102-28.14 29.927 5.472 3.826 21.683-11.327 21.683-11.327s-19.263 23.4-17.579 27.241c1.684 3.841 6.511 2.138 6.511 2.138s.425 5.228 3.589 7.981 23.551-11.886 23.551-11.886 43.449 42.037 59.212 13.361c15.765-28.676-11.969-32.293-11.969-32.293z"/><path fill="#725252" d="M1311.344 351.189c-22.202 13.027 6.437 47.01 7.733 53.732 1.297 6.722 33.619 46.782 44.754 45.493 11.135-1.29 18.245-28.762 18.07-32.217-.175-3.455 6.799-33.526.491-38.546-6.308-5.019-27.747-14.204-27.747-14.204s9.815-2.162 6.826-4.794c-13.453-11.845-33.092-19.459-50.127-9.464z"/><path fill="#ff867a" d="m1365.895 415.391 26.797 76.934c1.331 7.695-11.55 43.693-44.805 36.292-4.514-1.005-8.201-22.348-6.159-30.898l5.45-53.188 18.717-29.14z"/><path fill="#ff867a" d="m1356.002 397.087 13.234 29.935c4.31 11.052-4.678 27.459-26.304 31.102-23.002 3.876-27.996-6.753-29.714-19.422-2.228-16.435.502-44.444 2.377-52.803 3.013-13.439 10.776-3.379 22.016 1.927 4.701 2.219 14.927 3.271 18.391 9.261z"/><path fill="#fff" d="M1315.275 421.463s10.645 2.537 25.496.696c0 0-2.515 7.863-8.297 11.191-5.783 3.329-13.289-.496-17.199-11.887z"/><path fill="#ff867a" d="M1362.567 401.337c.699-3.711 2.598-9.064 7.593-5.319 7.266 5.447 3.993 23.505-5.462 23.285-7.021-.165-2.499-16.013-2.131-17.966z"/><path fill="#c66c67" d="M1326.106 412.896c-2.33-.3-4.4-1.098-6.33-2.437-1.462-1.014-2.756 1.43-1.31 2.433a15.768 15.768 0 0 0 7 2.692c1.748.225 2.402-2.461.64-2.688z"/><path fill="#434a59" d="M1335.453 399.935c-.285-.037-1.161-.21-1.633.832-.355.784-.556 1.783-.425 2.653.153 1.016 1.208 1.555 2.133 1.137 1.282-.578 1.839-4.377-.075-4.622zM1318.336 401.147c-.285-.036-1.161-.21-1.633.832-.355.784-.556 1.783-.425 2.653.153 1.016 1.207 1.555 2.133 1.138 1.282-.579 1.839-4.378-.075-4.623z"/><path fill="#725252" d="M1321.65 392.43c-2.005.229-3.914.781-5.757 1.529-1.707.693-3.07-2.981-1.364-3.673a24.708 24.708 0 0 1 6.518-1.662c1.851-.213 2.448 3.595.603 3.806zM1333.971 388.932c2.383.274 4.781.411 7.152.787 2.494.395 1.931 4.273-.562 3.878-2.371-.375-4.769-.513-7.152-.787-2.512-.289-1.94-4.166.562-3.878zM1351.642 391.225s1.911 3.473 2.141 9.427c.229 5.954-1.011 10.778 3.867 10.882 4.784.102 3.22-5.393 4.918-10.196 1.698-4.804-2.561-10.902-7.253-11.717-4.692-.815-3.673 1.604-3.673 1.604z"/><path fill="#c66c67" d="M1368.432 440.927c-1.075-3.442-15.291 10.211-31.171 11.925-10.487 1.132-17.141-.798-20.466-2.241 3.761 6.382 11.1 10.048 26.138 7.515a47.753 47.753 0 0 0 2.914-.595l-1.672 16.317c13.002-4.061 25.287-29.627 24.257-32.921z"/><path fill="#434a59" d="M1175.489 922.922a3 3 0 0 1-2.99-3.297l8.057-81.018c.165-1.649 1.647-2.844 3.282-2.688a3 3 0 0 1 2.688 3.282l-8.057 81.018a2.999 2.999 0 0 1-2.98 2.703z"/></svg>