<svg xmlns="http://www.w3.org/2000/svg" viewBox="0 0 2000 2000"><path fill="#eaeefd" d="M667.766 1384.446h664.468v17.304H667.766z"/><path fill="#ffbd94" d="M941.179 1102.056c.15 13.248-7.335 6.213-9.805 3.07-2.471-3.143-19.957-2.542-19.957-2.542l-1.599-8.162s18.354-24.64 23.453-16.331c3.446 5.616-8.851 11.726-8.851 11.726s16.609-1.009 16.759 12.239z"/><path fill="#6ee371" d="M793.186 908.7c12.865-.028 22.262 157.29 22.262 157.29l95.097 25.407c2.667-.361 4.316 11.891 1.649 12.251 0 0-95.323 14.971-116.303-5.201-11.627-11.179-5.409-64.289-5.409-64.289s-27.351-125.392 2.704-125.458z"/><path fill="#42383f" d="M867.019 1367.388c2.977 1.263 15.653 6.739 20.079 10.335.718.585 1.573 2.181 1.564 3.482-.01 1.304-.593 2.386-1.412 3.241h-28.354c-.887-.946-1.461-2.188-1.45-3.615l.216-13.442h9.357z"/><path fill="#9f4eb8" d="M815.186 1113.801s115.142 13.971 123.785 35.539c21.355 53.291-69.13 218.048-69.13 218.048 0 1.278-13.08 1.278-13.08 0l24.217-176.317s-99.939-36.441-100.527-37.029c-.588-.588-19.396-34.286-18.417-36.05s26.449-18.417 26.449-18.417l26.703 14.226z"/><path fill="#42383f" d="M930.129 1367.388c2.977 1.263 15.653 6.739 20.079 10.335.718.585 1.573 2.181 1.564 3.482-.01 1.304-.593 2.386-1.412 3.241h-28.354c-.887-.946-1.461-2.188-1.45-3.615l.216-13.442h9.357z"/><path fill="#a852c3" d="M690.935 1124.948c-6.27 14.75-5.389 29.811.844 42.728 8.927 18.501 28.096 29.861 48.638 29.861h140.189l38.816 169.852c0 1.486 12.336 1.486 12.336 0 0 0 16.44-182.979-2.074-211.877-22.881-35.714-154.699-31.445-154.699-31.445l-51.723-8.539-32.327 9.42z"/><path fill="#50cb52" d="M795.989 902.84c-10.633-28.709-31.346-37.221-45.732-31.455-63.089 25.283-64.264 251.411-64.264 251.411 1.263 19.397 132.76 6.627 131.496-12.77 0 0 .052-148.998-21.5-207.186z"/><path fill="#ffbd94" d="m794.76 903.949 5.271-23.337s22.314 12.833 32.894-.832c12.396-16.011 45.36-89.711-15.474-104.993-88.452-22.22-68.474 94.341-68.474 94.341-2.489 17.335 40.304 42.026 45.783 34.821z"/><path fill="#ff7843" d="m933.375 1128.498 29.648-17.483.401 7.902-31.87 17.615z"/><path fill="#a99dad" d="m788.844 1122.53 31.87-17.615 142.309 6.1-29.648 17.483z"/><path fill="#bcb4bf" d="m933.375 1128.498-1.821 8.034-142.309-6.1-.401-7.902z"/><path fill="#dce0ee" d="m971.441 987.504 31.87-17.615-32.443 149.347-31.87 17.616z"/><path fill="#eaeefd" d="m964.006 987.185 31.869-17.615 7.436.319-31.87 17.615zM971.441 987.504l-32.443 149.348-7.444-.32 32.452-149.347z"/><path fill="#dce0ee" d="M873.703 1209.954h7.203v174.491h-7.203zM674.283 1209.954h7.203v174.491h-7.203z"/><path fill="#dce0ee" d="m677.098 1317.164 201.196-110.467 1.6 2.913-201.197 110.467z"/><path fill="#dce0ee" d="m677.057 1209.61 1.598-2.912 201.23 110.403-1.598 2.913z"/><path fill="#564a5e" d="M880.906 1209.954H687.657v-13.374s159.087-34.162 193.249 0c2.364 2.364 0 13.374 0 13.374z"/><path fill="#665c70" d="M687.657 994.702c34.162 34.162 42.21 215.252 42.21 215.252h-55.584V994.702s11.01-2.364 13.374 0z"/><path fill="#dce0ee" d="m787.388 828.316 31.953 47.591c.928 1.382.546 3.322-.836 4.25l-25.647 17.22c-1.382.928-3.322.546-4.25-.835l-31.953-47.591a3.053 3.053 0 0 1 .835-4.25l25.647-17.22a3.056 3.056 0 0 1 4.251.835z"/><path fill="#ffb688" d="m806.946 898.73-13.552-1.206s-18.222-24.895-11.218-25.533c2.894-.288 4.283.752 4.861 2.086-.29-8.741.926-26.739 16.032-16.843 19.561 12.906 3.877 41.496 3.877 41.496z"/><path fill="#55de58" d="M728.748 893.467c-17.276 2.219-27.067 19.409-28.852 41.523-3.276 40.568 8.1 144.238 50.621 146.463 44.416 2.324 59.953-182.724 59.953-182.724.111-2.363-17.983-3.209-18.094-.845l-38.226 111.908s3.608-67.829.459-93.402c-2.403-19.515-12.927-24.584-25.861-22.923z"/><path fill="#231d21" d="M744.907 949.063c2.414-9.179 1.26-18.856 1.287-28.347.028-9.491 1.585-19.693 8.146-26.552 4.713-4.927 11.77-7.874 14.568-14.092 3.26-7.246-.659-15.548-.887-23.491-.446-15.493 13.501-27.984 28.149-33.049 14.649-5.065 30.561-5.042 45.598-8.798 8.41-2.101 16.713-5.507 23.053-11.419 6.34-5.912 10.462-14.648 9.283-23.237-.975-7.099-5.42-13.376-10.999-17.872-5.58-4.496-12.248-7.415-18.943-9.968-18.556-7.076-38.639-11.782-58.252-8.663-19.613 3.119-38.633 15.314-45.658 33.889-4.875 12.892-3.653 27.287-7.032 40.65-6.188 24.467-26.732 42.434-38.3 64.864-8.33 16.15-11.824 35.47-6.138 52.73 7.454 22.634 46.54 49.805 56.125 13.355z"/><path fill="#665c70" d="M1332.234 873.16v229.727c0 7.545-6.16 13.704-13.704 13.704h-269.179c-7.614 0-13.704-6.159-13.704-13.704V873.16h296.587z"/><path fill="#fff" d="M1049.327 1109.645c-3.741 0-6.786-3.133-6.786-6.991V873.155h282.746v229.499c0 3.858-3.042 6.991-6.783 6.991h-269.177z"/><path fill="#665c70" d="M1332.209 843.551v29.604H1035.62v-29.604c0-7.571 6.135-13.706 13.705-13.706h269.178c7.572 0 13.706 6.135 13.706 13.706z"/><path fill="#fff" d="M1076.575 848.96c5.115 6.986-2.664 14.765-9.65 9.65a1.286 1.286 0 0 1-.278-.278c-5.115-6.987 2.663-14.765 9.65-9.65.104.077.201.174.278.278zm21.292 0c5.115 6.986-2.663 14.765-9.65 9.65a1.309 1.309 0 0 1-.278-.278c-5.115-6.987 2.663-14.765 9.65-9.65.104.077.201.174.278.278zm21.292 0c5.115 6.986-2.663 14.765-9.65 9.65a1.309 1.309 0 0 1-.278-.278c-5.115-6.987 2.663-14.765 9.65-9.65.104.077.201.174.278.278zm192.306 7.363h-171.146a2.685 2.685 0 0 1-2.677-2.677 2.685 2.685 0 0 1 2.677-2.677h171.146a2.685 2.685 0 0 1 2.677 2.677 2.684 2.684 0 0 1-2.677 2.677z"/><path fill="#ecf0fd" d="M1063.303 1077.802V753.673c0-6.119 4.961-11.08 11.08-11.08h219.06c6.119 0 11.08 4.961 11.08 11.08v324.129c0 6.119-4.961 11.08-11.08 11.08h-219.06c-6.119 0-11.08-4.96-11.08-11.08z"/><path fill="#dce0ee" d="M1094.896 799.563h178.088v28.551h-178.088z"/><path fill="#6ee371" d="M1094.896 839.697v21.875a3.338 3.338 0 0 0 3.338 3.338h171.412a3.338 3.338 0 0 0 3.338-3.338v-21.875a3.338 3.338 0 0 0-3.338-3.338h-171.412a3.338 3.338 0 0 0-3.338 3.338z"/><path fill="#ff7843" d="M1123.564 1020.43v14.833a2.263 2.263 0 0 0 2.263 2.263h116.226a2.263 2.263 0 0 0 2.263-2.263v-14.833a2.263 2.263 0 0 0-2.263-2.263h-116.226a2.263 2.263 0 0 0-2.263 2.263z"/><path fill="#fff" d="M1162.045 841.207h-60.124a2.177 2.177 0 0 0-2.177 2.177v14.504c0 1.203.975 2.177 2.177 2.177h60.124a2.177 2.177 0 0 0 2.177-2.177v-14.504a2.177 2.177 0 0 0-2.177-2.177z"/><path fill="#dce0ee" d="M1162.045 874.885h-60.124a2.177 2.177 0 0 0-2.177 2.177v14.504c0 1.202.975 2.177 2.177 2.177h60.124a2.177 2.177 0 0 0 2.177-2.177v-14.504a2.177 2.177 0 0 0-2.177-2.177z"/><path fill="#ff7843" d="M1077.147 756.439h213.534v24.469h-213.534z"/><path fill="#f7651e" d="M1077.147 756.439h27.666v24.469h-27.666zM1263.014 756.439h27.666v24.469h-27.666z"/><path fill="#fff" d="m1142.6 774.547-2.163-11.761-.02-.149c0-.108.041-.203.108-.277a.378.378 0 0 1 .277-.108h1.649c.162 0 .277.027.351.081s.122.149.149.284l1.521 8.26 1.636-5.326c.122-.304.324-.453.601-.453h1.014c.156 0 .284.041.385.135a.68.68 0 0 1 .196.318l1.656 5.326 1.5-8.26c.041-.243.21-.365.514-.365h1.656c.095 0 .182.034.257.108a.403.403 0 0 1 .108.277.484.484 0 0 1-.02.149l-2.163 11.761a.627.627 0 0 1-.209.399.68.68 0 0 1-.453.149h-1.244a.655.655 0 0 1-.426-.135.678.678 0 0 1-.216-.324l-2.055-6.09-2.055 6.09c-.101.304-.318.46-.649.46h-1.244c-.356-.002-.573-.184-.661-.549zm13.654.419a.417.417 0 0 1-.128-.311v-11.944c0-.135.041-.25.115-.331a.416.416 0 0 1 .324-.128h8.091c.135 0 .243.041.331.128a.433.433 0 0 1 .129.331v1.23a.414.414 0 0 1-.129.318.466.466 0 0 1-.331.122h-6.016v3.211h5.61c.135 0 .243.041.331.128a.432.432 0 0 1 .128.331v1.156a.407.407 0 0 1-.128.318.466.466 0 0 1-.331.122h-5.61v3.319h6.165c.135 0 .243.041.331.122a.427.427 0 0 1 .129.318v1.25a.416.416 0 0 1-.129.318.466.466 0 0 1-.331.122h-8.24a.416.416 0 0 1-.311-.13zm11.43 0a.417.417 0 0 1-.128-.311v-11.964a.42.42 0 0 1 .128-.324.454.454 0 0 1 .311-.115h1.724c.135 0 .243.041.325.115a.464.464 0 0 1 .115.324v10.2h5.82a.47.47 0 0 1 .331.128.446.446 0 0 1 .128.311v1.325a.446.446 0 0 1-.128.311.442.442 0 0 1-.331.128h-7.983a.41.41 0 0 1-.312-.128zm11.403-.98c-.926-.865-1.413-2.089-1.474-3.677-.013-.331-.02-.872-.02-1.616 0-.764.007-1.311.02-1.656.061-1.561.554-2.785 1.48-3.657.933-.879 2.237-1.311 3.914-1.311 1.088 0 2.035.182 2.839.554.811.378 1.44.885 1.886 1.534.446.649.683 1.379.703 2.183v.04a.32.32 0 0 1-.115.243.406.406 0 0 1-.271.101h-1.778c-.149 0-.257-.034-.331-.101-.074-.068-.135-.182-.182-.358-.182-.757-.5-1.291-.953-1.602-.453-.311-1.054-.466-1.798-.466-1.751 0-2.663.973-2.738 2.933-.014.331-.02.838-.02 1.521 0 .689.007 1.203.02 1.561.074 1.953.987 2.933 2.738 2.933.73 0 1.325-.155 1.784-.466.46-.311.784-.845.967-1.602.047-.176.108-.291.182-.358.074-.068.182-.101.331-.101h1.778c.108 0 .203.034.284.108a.3.3 0 0 1 .101.277 3.955 3.955 0 0 1-.703 2.183c-.446.649-1.075 1.156-1.886 1.528-.804.378-1.751.561-2.839.561-1.688.002-2.993-.431-3.919-1.289zm12.573.027c-.926-.845-1.413-2.102-1.467-3.765-.013-.352-.013-.872-.013-1.555 0-.703 0-1.223.013-1.582.054-1.622.554-2.873 1.507-3.745.953-.865 2.244-1.298 3.873-1.298 1.615 0 2.9.433 3.859 1.298.96.872 1.467 2.122 1.514 3.745.027.71.034 1.237.034 1.582 0 .325-.007.845-.034 1.555-.047 1.663-.541 2.92-1.474 3.765-.94.845-2.237 1.264-3.9 1.264-1.675 0-2.98-.419-3.912-1.264zm5.853-1.595c.48-.493.737-1.244.771-2.258.027-.737.041-1.23.041-1.487 0-.284-.014-.777-.041-1.487-.034-1-.297-1.751-.784-2.251-.493-.493-1.135-.737-1.926-.737-.811 0-1.46.243-1.947.737-.487.5-.743 1.25-.771 2.251-.013.358-.02.852-.02 1.487 0 .622.007 1.115.02 1.487.027 1 .277 1.751.764 2.244.48.5 1.129.743 1.953.743.818.001 1.467-.243 1.94-.729zm5.989 2.548a.417.417 0 0 1-.128-.311v-11.944c0-.135.04-.25.115-.331a.416.416 0 0 1 .324-.128h1.487c.23 0 .412.115.547.345l3.542 6.57 3.542-6.57c.135-.23.318-.345.548-.345h1.473a.42.42 0 0 1 .324.128.433.433 0 0 1 .129.331v11.944c0 .135-.041.243-.129.318a.438.438 0 0 1-.324.122h-1.582a.421.421 0 0 1-.311-.128.417.417 0 0 1-.128-.311v-7.888l-2.548 4.84c-.135.27-.338.406-.608.406h-.771c-.257 0-.466-.135-.622-.406l-2.555-4.84v7.888a.416.416 0 0 1-.439.439h-1.575a.411.411 0 0 1-.311-.129zm14.897 0a.417.417 0 0 1-.128-.311v-11.944c0-.135.041-.25.115-.331a.417.417 0 0 1 .325-.128h8.091c.135 0 .243.041.331.128a.432.432 0 0 1 .128.331v1.23c0 .128-.04.237-.128.318a.466.466 0 0 1-.331.122h-6.016v3.211h5.61c.135 0 .243.041.331.128a.432.432 0 0 1 .128.331v1.156a.407.407 0 0 1-.128.318.466.466 0 0 1-.331.122h-5.61v3.319h6.164c.135 0 .243.041.331.122a.427.427 0 0 1 .128.318v1.25a.419.419 0 0 1-.128.318.466.466 0 0 1-.331.122h-8.24a.419.419 0 0 1-.311-.13zm-118.094-10.209h-18.651a.173.173 0 0 1-.172-.172v-2.031c0-.094.077-.172.172-.172h18.651c.094 0 .172.077.172.172v2.031a.173.173 0 0 1-.172.172zm0 5.103h-18.651a.173.173 0 0 1-.172-.172v-2.031c0-.094.077-.172.172-.172h18.651c.094 0 .172.077.172.172v2.031a.173.173 0 0 1-.172.172zm0 5.103h-18.651a.173.173 0 0 1-.172-.172v-2.031c0-.094.077-.172.172-.172h18.651c.094 0 .172.077.172.172v2.031a.173.173 0 0 1-.172.172zm169.477-13.431c-2.703 2.703-2.704 7.096-.024 9.776a6.932 6.932 0 0 0 9.799-.001c2.679-2.679 2.68-7.071-.024-9.775-2.68-2.68-7.071-2.679-9.751 0zm7.942 7.941c-1.69 1.69-4.418 1.665-6.107-.024a4.306 4.306 0 0 1-.001-6.083c1.666-1.666 4.418-1.664 6.083.001 1.689 1.688 1.69 4.44.025 6.106z"/><path fill="#fff" d="m1277.114 770.954 6.465 6.464c.54.54 1.421.54 1.96.001a1.39 1.39 0 0 0-.001-1.96l-6.464-6.465-1.96 1.96z"/><path fill="#3e60d3" d="M1119.466 819.611a.394.394 0 0 1-.122-.291v-10.95c0-.122.034-.223.108-.304a.409.409 0 0 1 .297-.115h4.353c1.379 0 2.46.318 3.238.96.784.635 1.169 1.548 1.169 2.724 0 .818-.196 1.507-.588 2.062-.392.554-.94.953-1.649 1.203l2.44 4.285a.423.423 0 0 1 .054.189.345.345 0 0 1-.108.25.351.351 0 0 1-.243.101h-1.548c-.182 0-.324-.041-.426-.128a1.08 1.08 0 0 1-.264-.324l-2.156-3.988h-2.305v4.035c0 .115-.04.209-.115.291a.436.436 0 0 1-.304.115h-1.548a.385.385 0 0 1-.283-.115zm4.59-6.245c.669 0 1.176-.149 1.514-.446.338-.297.507-.73.507-1.305 0-.568-.169-1.007-.507-1.318-.338-.311-.845-.46-1.514-.46h-2.339v3.528h2.339zm6.746 6.245a.394.394 0 0 1-.122-.291v-10.95c0-.122.034-.223.108-.304a.409.409 0 0 1 .297-.115h7.415c.128 0 .23.041.304.115a.412.412 0 0 1 .122.304v1.129a.365.365 0 0 1-.122.291.414.414 0 0 1-.304.115h-5.516v2.94h5.151c.122 0 .223.041.297.122a.387.387 0 0 1 .122.297v1.061a.386.386 0 0 1-.122.297.43.43 0 0 1-.297.108h-5.151v3.042h5.651c.122 0 .223.041.304.108a.382.382 0 0 1 .115.297v1.142c0 .128-.034.223-.115.297a.431.431 0 0 1-.304.108h-7.55a.375.375 0 0 1-.283-.113zm11.247-.912c-.858-.798-1.318-1.906-1.372-3.332a41.2 41.2 0 0 1-.02-1.561c0-.716.007-1.237.02-1.561.041-1.392.507-2.487 1.379-3.278.872-.784 2.075-1.183 3.603-1.183 1.027 0 1.92.176 2.663.527.744.358 1.311.791 1.69 1.318.379.52.581 1.034.608 1.534a.355.355 0 0 1-.101.257.37.37 0 0 1-.27.101h-1.764a.445.445 0 0 1-.257-.068.683.683 0 0 1-.149-.223c-.156-.412-.433-.764-.825-1.061-.392-.291-.926-.433-1.595-.433-.791 0-1.399.21-1.845.629-.446.419-.676 1.075-.696 1.96-.013.324-.02.818-.02 1.48 0 .649.007 1.142.02 1.48.02.906.257 1.582.703 2.008.453.433 1.068.649 1.852.649.798 0 1.433-.21 1.92-.635.48-.426.723-1.068.723-1.92v-.521h-2.055a.379.379 0 0 1-.284-.122.368.368 0 0 1-.122-.284v-.926a.38.38 0 0 1 .122-.284.379.379 0 0 1 .284-.122h4.035c.128 0 .23.041.304.122a.379.379 0 0 1 .122.284v1.784c0 .933-.21 1.744-.622 2.433-.419.689-1.007 1.217-1.771 1.589-.764.372-1.656.554-2.67.554-1.548.001-2.751-.397-3.61-1.195zm10.923.912a.394.394 0 0 1-.122-.291v-10.964c0-.128.041-.223.122-.297a.383.383 0 0 1 .284-.108h1.615a.39.39 0 0 1 .291.108.394.394 0 0 1 .108.297v10.964a.412.412 0 0 1-.108.291.393.393 0 0 1-.291.115h-1.615a.386.386 0 0 1-.284-.115zm6.442-.168c-.717-.304-1.264-.703-1.629-1.196a2.796 2.796 0 0 1-.588-1.615c0-.088.034-.169.101-.243a.31.31 0 0 1 .25-.108h1.528c.128 0 .223.027.304.081a.802.802 0 0 1 .216.237c.115.385.372.703.771.96s.939.385 1.636.385c.784 0 1.379-.128 1.778-.392s.595-.629.595-1.088c0-.304-.101-.554-.304-.757-.196-.203-.507-.379-.913-.527-.412-.155-1.021-.338-1.825-.547-1.325-.311-2.298-.73-2.913-1.244-.615-.521-.926-1.257-.926-2.224 0-.649.183-1.23.541-1.737.358-.514.872-.913 1.541-1.203.662-.291 1.44-.439 2.325-.439.933 0 1.737.162 2.42.487.676.325 1.19.73 1.548 1.223.351.487.541.973.561 1.453a.355.355 0 0 1-.101.243.32.32 0 0 1-.25.108h-1.602c-.243 0-.412-.101-.5-.304-.061-.358-.277-.656-.662-.899-.379-.237-.852-.358-1.413-.358-.615 0-1.102.115-1.453.352s-.527.575-.527 1.027c0 .304.088.554.27.757.176.203.46.378.838.527.379.156.94.325 1.663.514 1 .223 1.791.48 2.386.757.588.284 1.021.635 1.298 1.061.284.426.426.967.426 1.629 0 .73-.203 1.359-.602 1.893s-.96.94-1.683 1.224c-.723.277-1.561.419-2.514.419-1.01-.004-1.875-.159-2.591-.456zm11.876.168a.394.394 0 0 1-.122-.291v-9.267h-3.109a.39.39 0 0 1-.284-.115.412.412 0 0 1-.122-.304v-1.264c0-.122.041-.223.108-.304a.409.409 0 0 1 .297-.115h8.598a.407.407 0 0 1 .419.419v1.264a.412.412 0 0 1-.122.304.409.409 0 0 1-.297.115h-3.096v9.267a.446.446 0 0 1-.108.291.409.409 0 0 1-.297.115h-1.582a.384.384 0 0 1-.283-.115zm7.604 0a.394.394 0 0 1-.122-.291v-10.95c0-.122.034-.223.108-.304a.409.409 0 0 1 .297-.115h7.415c.129 0 .23.041.304.115a.412.412 0 0 1 .122.304v1.129a.365.365 0 0 1-.122.291.414.414 0 0 1-.304.115h-5.516v2.94h5.151c.122 0 .223.041.297.122a.387.387 0 0 1 .122.297v1.061a.386.386 0 0 1-.122.297.43.43 0 0 1-.297.108h-5.151v3.042h5.651c.122 0 .223.041.304.108a.382.382 0 0 1 .115.297v1.142c0 .128-.034.223-.115.297a.431.431 0 0 1-.304.108h-7.55a.376.376 0 0 1-.283-.113zm10.484 0a.394.394 0 0 1-.122-.291v-10.95c0-.122.034-.223.108-.304a.409.409 0 0 1 .297-.115h4.353c1.379 0 2.46.318 3.238.96.784.635 1.169 1.548 1.169 2.724 0 .818-.196 1.507-.588 2.062-.392.554-.94.953-1.649 1.203l2.44 4.285a.423.423 0 0 1 .054.189.345.345 0 0 1-.108.25.353.353 0 0 1-.243.101h-1.548c-.182 0-.324-.041-.426-.128a1.08 1.08 0 0 1-.264-.324l-2.156-3.988h-2.305v4.035c0 .115-.04.209-.115.291a.436.436 0 0 1-.304.115h-1.548a.384.384 0 0 1-.283-.115zm4.59-6.245c.669 0 1.176-.149 1.514-.446.338-.297.507-.73.507-1.305 0-.568-.169-1.007-.507-1.318-.338-.311-.845-.46-1.514-.46h-2.339v3.528h2.339zm10.578 6.245a.394.394 0 0 1-.122-.291v-10.95c0-.122.034-.223.108-.304a.409.409 0 0 1 .297-.115h7.314c.128 0 .23.041.304.115a.412.412 0 0 1 .122.304v1.21c0 .115-.041.21-.122.291a.414.414 0 0 1-.304.115h-5.38v3.163h5.049a.407.407 0 0 1 .419.406v1.21a.38.38 0 0 1-.122.284.387.387 0 0 1-.297.122h-5.049v4.15a.418.418 0 0 1-.115.291.436.436 0 0 1-.304.115h-1.514a.389.389 0 0 1-.284-.116zm10.882-.878c-.852-.771-1.305-1.92-1.345-3.447-.014-.325-.02-.804-.02-1.433 0-.635.007-1.115.02-1.446.04-1.487.507-2.629 1.379-3.427s2.055-1.196 3.549-1.196c1.48 0 2.663.399 3.542 1.196s1.345 1.94 1.386 3.427c.027.656.034 1.136.034 1.446 0 .304-.007.784-.034 1.433-.041 1.528-.494 2.677-1.352 3.447-.858.777-2.048 1.163-3.576 1.163-1.535-.001-2.731-.386-3.583-1.163zm5.367-1.46c.439-.453.669-1.142.703-2.068a36.49 36.49 0 0 0 .034-1.365c0-.257-.007-.71-.034-1.365-.034-.919-.27-1.602-.723-2.055-.446-.46-1.034-.683-1.764-.683-.737 0-1.332.223-1.784.683-.446.453-.683 1.135-.703 2.055-.014.331-.02.784-.02 1.365 0 .575.007 1.027.02 1.365.02.919.25 1.602.696 2.055.446.46 1.041.683 1.791.683.75-.001 1.345-.224 1.784-.67zm5.489 2.338a.394.394 0 0 1-.122-.291v-10.95c0-.122.034-.223.108-.304a.409.409 0 0 1 .297-.115h4.353c1.379 0 2.46.318 3.238.96.784.635 1.169 1.548 1.169 2.724 0 .818-.196 1.507-.588 2.062-.392.554-.94.953-1.649 1.203l2.44 4.285a.423.423 0 0 1 .054.189.345.345 0 0 1-.108.25.351.351 0 0 1-.243.101h-1.548c-.182 0-.324-.041-.426-.128a1.08 1.08 0 0 1-.264-.324l-2.156-3.988h-2.305v4.035a.418.418 0 0 1-.115.291.436.436 0 0 1-.304.115h-1.548a.384.384 0 0 1-.283-.115zm4.589-6.245c.669 0 1.176-.149 1.514-.446.338-.297.507-.73.507-1.305 0-.568-.169-1.007-.507-1.318-.338-.311-.845-.46-1.514-.46h-2.339v3.528h2.339zm6.746 6.245a.394.394 0 0 1-.122-.291v-10.95c0-.122.034-.223.108-.304a.409.409 0 0 1 .297-.115h1.359c.216 0 .385.108.507.318l3.245 6.023 3.251-6.023c.122-.209.291-.318.5-.318h1.345c.128 0 .23.041.304.115a.412.412 0 0 1 .122.304v10.95a.377.377 0 0 1-.122.297.41.41 0 0 1-.304.108h-1.447a.412.412 0 0 1-.284-.115.417.417 0 0 1-.115-.291v-7.232l-2.339 4.441c-.122.25-.311.372-.554.372h-.71c-.237 0-.426-.122-.568-.372l-2.339-4.441v7.232a.418.418 0 0 1-.115.291.384.384 0 0 1-.291.115h-1.447a.378.378 0 0 1-.281-.114z"/><path fill="#42383f" d="M1111.475 855.53a.368.368 0 0 1-.115-.27v-10.382c0-.122.034-.216.101-.291a.372.372 0 0 1 .284-.108h1.291c.203 0 .358.101.48.297l3.076 5.718 3.082-5.718c.115-.196.277-.297.48-.297h1.278c.115 0 .21.034.284.108a.393.393 0 0 1 .115.291v10.382a.379.379 0 0 1-.115.284.403.403 0 0 1-.284.101h-1.372a.334.334 0 0 1-.27-.115.343.343 0 0 1-.115-.27v-6.861l-2.217 4.211c-.115.237-.291.352-.527.352h-.669c-.223 0-.406-.115-.541-.352l-2.224-4.211v6.861a.385.385 0 0 1-.101.27c-.068.081-.162.115-.277.115h-1.372a.345.345 0 0 1-.272-.115zm11.916.02a.342.342 0 0 1-.095-.243l.034-.142 3.826-10.288c.108-.27.297-.399.575-.399h1.757c.277 0 .466.128.575.399l3.826 10.288.034.142a.322.322 0 0 1-.101.243.348.348 0 0 1-.23.095h-1.419c-.23 0-.379-.101-.466-.304l-.737-1.926h-4.718l-.737 1.926c-.081.203-.237.304-.46.304h-1.419a.344.344 0 0 1-.245-.095zm3.414-3.988h3.609l-1.805-4.914-1.804 4.914zm8.699 3.968a.368.368 0 0 1-.115-.27v-10.403c0-.115.041-.209.115-.277a.38.38 0 0 1 .27-.101h1.501a.38.38 0 0 1 .277.101.376.376 0 0 1 .101.277v8.875h5.063a.383.383 0 0 1 .399.378v1.149a.368.368 0 0 1-.115.27.363.363 0 0 1-.284.115h-6.942a.34.34 0 0 1-.27-.114zm9.267 0a.368.368 0 0 1-.115-.27v-10.382c0-.122.034-.216.101-.291a.372.372 0 0 1 .284-.108h7.036c.115 0 .209.034.284.108a.393.393 0 0 1 .115.291v1.068c0 .115-.041.21-.115.277a.403.403 0 0 1-.284.101h-5.232v2.798h4.88c.115 0 .209.034.284.108a.393.393 0 0 1 .115.291v1c0 .122-.041.21-.115.284a.403.403 0 0 1-.284.101h-4.88v2.886h5.36a.384.384 0 0 1 .399.385v1.082a.379.379 0 0 1-.115.284.403.403 0 0 1-.284.101h-7.165a.339.339 0 0 1-.269-.114z"/><path fill="#fff" d="M1198.433 856.305a.387.387 0 0 1-.109-.296v-11.098a.398.398 0 0 1 .405-.421h7.409c.125 0 .234.047.311.125a.398.398 0 0 1 .125.296v1.23a.398.398 0 0 1-.125.296.435.435 0 0 1-.311.125h-5.448v3.191h5.121c.125 0 .218.047.296.125a.398.398 0 0 1 .125.296v1.23a.39.39 0 0 1-.125.28.398.398 0 0 1-.296.125h-5.121v4.203a.398.398 0 0 1-.125.296.398.398 0 0 1-.296.124h-1.541a.436.436 0 0 1-.295-.127zm10.273 0a.398.398 0 0 1-.125-.296v-11.098c0-.125.047-.218.109-.296a.398.398 0 0 1 .296-.125h7.534c.125 0 .218.047.296.125a.398.398 0 0 1 .125.296v1.152a.398.398 0 0 1-.421.405h-5.604v2.989h5.214c.125 0 .234.031.311.109a.46.46 0 0 1 .124.311v1.074a.376.376 0 0 1-.124.296.424.424 0 0 1-.311.109h-5.214v3.097h5.728c.125 0 .234.031.311.109a.398.398 0 0 1 .125.296v1.152c0 .14-.047.234-.125.311a.504.504 0 0 1-.311.109h-7.658a.39.39 0 0 1-.28-.125zm10.616 0a.398.398 0 0 1-.125-.296v-11.098c0-.125.047-.218.109-.296a.398.398 0 0 1 .296-.125h1.385c.218 0 .389.109.514.327l3.284 6.102 3.3-6.102c.125-.218.296-.327.514-.327h1.354c.125 0 .234.047.311.125a.398.398 0 0 1 .124.296v11.098a.41.41 0 0 1-.124.311.504.504 0 0 1-.311.109h-1.463a.392.392 0 0 1-.28-.124c-.093-.078-.125-.171-.125-.296v-7.331l-2.366 4.514c-.125.249-.311.374-.576.374h-.716c-.233 0-.42-.125-.576-.374l-2.366-4.514v7.331a.398.398 0 0 1-.405.42h-1.479a.384.384 0 0 1-.279-.124zm12.732.016a.354.354 0 0 1-.093-.249l.031-.156 4.094-11.005c.109-.28.311-.42.607-.42h1.883c.296 0 .498.14.607.42l4.094 11.005.031.156a.31.31 0 0 1-.109.249.332.332 0 0 1-.249.109h-1.51c-.249 0-.405-.109-.498-.327l-.794-2.07h-5.043l-.778 2.07a.506.506 0 0 1-.498.327h-1.51a.342.342 0 0 1-.265-.109zm3.658-4.265h3.845l-1.93-5.245-1.915 5.245zm9.292 4.249a.398.398 0 0 1-.125-.296v-11.114c0-.125.047-.218.125-.296a.374.374 0 0 1 .28-.109h1.603c.125 0 .233.031.311.109a.458.458 0 0 1 .109.296v9.479h5.401c.125 0 .234.047.311.125a.387.387 0 0 1 .109.296v1.214a.387.387 0 0 1-.109.296.434.434 0 0 1-.311.124h-7.425a.386.386 0 0 1-.279-.124zm9.9 0a.398.398 0 0 1-.125-.296v-11.098c0-.125.047-.218.109-.296a.398.398 0 0 1 .296-.125h7.534a.4.4 0 0 1 .296.125.398.398 0 0 1 .125.296v1.152a.398.398 0 0 1-.421.405h-5.604v2.989h5.214c.125 0 .234.031.311.109a.462.462 0 0 1 .125.311v1.074a.374.374 0 0 1-.125.296.424.424 0 0 1-.311.109h-5.214v3.097h5.728c.125 0 .234.031.311.109a.398.398 0 0 1 .125.296v1.152c0 .14-.047.234-.125.311a.504.504 0 0 1-.311.109h-7.658a.39.39 0 0 1-.28-.125z"/><path fill="#dce0ee" d="M1290.707 909.241h-160.29c-.953 0-1.73-.777-1.73-1.73s.777-1.73 1.73-1.73h160.29c.953 0 1.73.777 1.73 1.73a1.733 1.733 0 0 1-1.73 1.73zM1162.045 919.337h-60.124a2.177 2.177 0 0 0-2.177 2.177v14.504c0 1.202.975 2.177 2.177 2.177h60.124a2.177 2.177 0 0 0 2.177-2.177v-14.504a2.177 2.177 0 0 0-2.177-2.177zM1290.707 953.69h-160.29c-.953 0-1.73-.777-1.73-1.73s.777-1.73 1.73-1.73h160.29c.953 0 1.73.777 1.73 1.73a1.733 1.733 0 0 1-1.73 1.73zM1162.045 963.788h-60.124a2.177 2.177 0 0 0-2.177 2.177v14.504c0 1.202.975 2.177 2.177 2.177h60.124a2.177 2.177 0 0 0 2.177-2.177v-14.504a2.177 2.177 0 0 0-2.177-2.177zM1290.707 998.14h-160.29c-.953 0-1.73-.777-1.73-1.73s.777-1.73 1.73-1.73h160.29c.953 0 1.73.777 1.73 1.73a1.733 1.733 0 0 1-1.73 1.73z"/><path fill="#fff" d="M1140.972 1032.658a.274.274 0 0 1-.084-.197v-7.523c0-.084.028-.152.079-.208a.277.277 0 0 1 .202-.079h2.993c.943 0 1.684.219 2.223.657.533.438.803 1.067.803 1.875 0 .561-.135 1.033-.404 1.415-.27.376-.651.651-1.134.825l1.673 2.942c.022.045.034.09.034.129a.235.235 0 0 1-.073.174.248.248 0 0 1-.168.067h-1.061a.434.434 0 0 1-.286-.084.759.759 0 0 1-.185-.23l-1.482-2.734h-1.583v2.773c0 .073-.022.14-.079.197a.297.297 0 0 1-.208.079h-1.061a.267.267 0 0 1-.199-.078zm3.15-4.289c.466 0 .808-.101 1.044-.303.23-.202.342-.505.342-.898 0-.387-.112-.691-.342-.904-.236-.213-.578-.32-1.044-.32h-1.606v2.425h1.606zm4.632 4.289a.274.274 0 0 1-.084-.197v-7.523c0-.084.028-.152.079-.208a.278.278 0 0 1 .202-.079h5.092c.084 0 .152.028.208.079a.276.276 0 0 1 .079.208v.775c0 .084-.022.152-.079.202a.295.295 0 0 1-.208.079h-3.79v2.021h3.537c.084 0 .152.022.208.079a.297.297 0 0 1 .079.208v.73a.273.273 0 0 1-.079.202.293.293 0 0 1-.208.073h-3.537v2.089h3.88c.09 0 .157.028.208.079.056.05.084.118.084.202v.786a.258.258 0 0 1-.084.202c-.051.05-.118.073-.208.073h-5.182a.274.274 0 0 1-.197-.08zm7.725-.623c-.589-.55-.904-1.314-.943-2.291a47.17 47.17 0 0 1 0-2.144c.034-.954.348-1.707.949-2.246.601-.545 1.426-.82 2.47-.82.707 0 1.319.124 1.83.365.511.241.898.545 1.162.904.258.359.399.708.416 1.056a.242.242 0 0 1-.067.174.268.268 0 0 1-.185.067h-1.213a.294.294 0 0 1-.174-.045.433.433 0 0 1-.107-.152 1.574 1.574 0 0 0-.567-.724c-.27-.202-.634-.303-1.095-.303-.539 0-.96.146-1.263.432-.303.292-.466.741-.483 1.347a45.863 45.863 0 0 0 0 2.032c.017.623.18 1.084.488 1.381.309.298.73.444 1.269.444.545 0 .988-.146 1.319-.438.331-.292.494-.73.494-1.319v-.354h-1.409a.263.263 0 0 1-.196-.084.27.27 0 0 1-.079-.197v-.634a.28.28 0 0 1 .079-.197.259.259 0 0 1 .196-.079h2.774c.084 0 .152.022.208.079a.28.28 0 0 1 .079.197v1.224c0 .64-.14 1.196-.427 1.667a2.835 2.835 0 0 1-1.213 1.095c-.522.253-1.134.382-1.836.382-1.061.001-1.886-.274-2.476-.819zm7.501.623a.274.274 0 0 1-.084-.197v-7.535c0-.084.028-.152.084-.202a.293.293 0 0 1 .197-.073h1.106c.084 0 .152.028.202.073a.274.274 0 0 1 .079.202v7.535c0 .073-.028.14-.079.197a.274.274 0 0 1-.202.079h-1.106a.27.27 0 0 1-.197-.079zm4.425-.118c-.494-.208-.87-.483-1.123-.82a1.947 1.947 0 0 1-.404-1.106s.022-.118.068-.169a.24.24 0 0 1 .174-.078h1.05c.09 0 .157.022.208.062a.52.52 0 0 1 .152.157c.079.264.253.483.528.662.27.174.646.264 1.123.264.539 0 .949-.09 1.218-.27.275-.185.41-.432.41-.747a.703.703 0 0 0-.208-.522c-.135-.135-.348-.258-.629-.359-.281-.107-.696-.23-1.252-.376-.909-.219-1.572-.5-1.999-.859-.421-.354-.635-.859-.635-1.521 0-.449.124-.848.371-1.196s.601-.623 1.056-.825c.46-.202.994-.303 1.6-.303.64 0 1.19.112 1.656.337s.82.505 1.061.837c.247.337.376.668.387.999a.244.244 0 0 1-.067.168.216.216 0 0 1-.174.073h-1.095c-.168 0-.286-.067-.348-.208-.039-.241-.191-.449-.449-.618-.264-.163-.584-.247-.971-.247-.421 0-.758.084-.999.241a.805.805 0 0 0-.365.708c0 .208.062.382.185.516.124.14.314.264.578.365.264.107.646.225 1.145.354.685.151 1.229.326 1.634.516.404.196.702.438.893.73.191.292.292.668.292 1.123 0 .5-.14.932-.41 1.297-.275.365-.662.646-1.157.837-.5.191-1.072.292-1.729.292-.692.001-1.287-.106-1.775-.314zm8.152.118a.274.274 0 0 1-.084-.197v-6.367h-2.133a.274.274 0 0 1-.197-.078.28.28 0 0 1-.084-.208v-.87c0-.084.028-.152.079-.208a.278.278 0 0 1 .202-.079h5.901c.084 0 .152.028.208.079a.297.297 0 0 1 .079.208v.87a.297.297 0 0 1-.079.208.299.299 0 0 1-.208.078h-2.128v6.367c0 .073-.022.14-.073.197a.274.274 0 0 1-.202.079h-1.084a.269.269 0 0 1-.197-.079zm5.216 0a.274.274 0 0 1-.084-.197v-7.523c0-.084.028-.152.079-.208a.278.278 0 0 1 .202-.079h5.092c.084 0 .152.028.208.079a.276.276 0 0 1 .079.208v.775c0 .084-.022.152-.079.202a.297.297 0 0 1-.208.079h-3.79v2.021h3.537c.084 0 .152.022.208.079.05.056.079.124.079.208v.73a.273.273 0 0 1-.079.202.293.293 0 0 1-.208.073h-3.537v2.089h3.88c.09 0 .157.028.208.079.056.05.084.118.084.202v.786a.258.258 0 0 1-.084.202c-.051.05-.118.073-.208.073h-5.182a.274.274 0 0 1-.197-.08zm7.198 0a.274.274 0 0 1-.084-.197v-7.523c0-.084.028-.152.079-.208a.278.278 0 0 1 .202-.079h2.993c.943 0 1.684.219 2.223.657.533.438.803 1.067.803 1.875 0 .561-.135 1.033-.404 1.415-.27.376-.651.651-1.134.825l1.673 2.942a.29.29 0 0 1 .034.129.231.231 0 0 1-.073.174.246.246 0 0 1-.168.067h-1.061a.434.434 0 0 1-.286-.084.759.759 0 0 1-.185-.23l-1.482-2.734h-1.583v2.773c0 .073-.022.14-.079.197a.297.297 0 0 1-.208.079h-1.061a.266.266 0 0 1-.199-.078zm3.149-4.289c.466 0 .809-.101 1.044-.303.23-.202.343-.505.343-.898 0-.387-.112-.691-.343-.904-.236-.213-.578-.32-1.044-.32h-1.606v2.425h1.606zm7.266 4.289a.274.274 0 0 1-.084-.197v-7.523c0-.084.028-.152.079-.208a.278.278 0 0 1 .202-.079h5.025c.084 0 .152.028.208.079a.297.297 0 0 1 .079.208v.836c0 .073-.028.14-.079.197a.302.302 0 0 1-.208.079h-3.7v2.173h3.464a.3.3 0 0 1 .213.079.28.28 0 0 1 .079.197v.831a.268.268 0 0 1-.079.196.284.284 0 0 1-.213.084h-3.464v2.852c0 .073-.022.14-.079.197a.297.297 0 0 1-.208.079h-1.039a.273.273 0 0 1-.196-.08zm6.956 0a.274.274 0 0 1-.084-.197v-7.523c0-.084.028-.152.079-.208a.278.278 0 0 1 .202-.079h2.993c.943 0 1.684.219 2.223.657.533.438.803 1.067.803 1.875 0 .561-.135 1.033-.404 1.415-.269.376-.651.651-1.134.825l1.673 2.942c.022.045.034.09.034.129a.231.231 0 0 1-.073.174.248.248 0 0 1-.168.067h-1.061a.434.434 0 0 1-.286-.084.759.759 0 0 1-.185-.23l-1.482-2.734h-1.583v2.773c0 .073-.022.14-.079.197a.295.295 0 0 1-.208.079h-1.061a.266.266 0 0 1-.199-.078zm3.15-4.289c.466 0 .808-.101 1.044-.303.23-.202.343-.505.343-.898 0-.387-.112-.691-.343-.904-.236-.213-.578-.32-1.044-.32h-1.606v2.425h1.606zm4.632 4.289a.274.274 0 0 1-.084-.197v-7.523a.3.3 0 0 1 .078-.208.278.278 0 0 1 .202-.079h5.092c.084 0 .151.028.208.079a.276.276 0 0 1 .079.208v.775c0 .084-.022.152-.079.202a.295.295 0 0 1-.208.079h-3.79v2.021h3.537c.084 0 .152.022.208.079a.297.297 0 0 1 .079.208v.73a.273.273 0 0 1-.079.202.291.291 0 0 1-.208.073h-3.537v2.089h3.88c.09 0 .157.028.208.079.056.05.084.118.084.202v.786a.258.258 0 0 1-.084.202c-.051.05-.118.073-.208.073h-5.182a.273.273 0 0 1-.196-.08zm7.198 0a.274.274 0 0 1-.084-.197v-7.523c0-.084.028-.152.079-.208a.278.278 0 0 1 .202-.079h5.092c.084 0 .152.028.208.079a.276.276 0 0 1 .079.208v.775c0 .084-.023.152-.079.202a.297.297 0 0 1-.208.079h-3.79v2.021h3.537c.084 0 .152.022.208.079a.297.297 0 0 1 .079.208v.73a.273.273 0 0 1-.079.202.293.293 0 0 1-.208.073h-3.537v2.089h3.88c.09 0 .157.028.208.079.056.05.084.118.084.202v.786a.258.258 0 0 1-.084.202c-.051.05-.118.073-.208.073h-5.182a.272.272 0 0 1-.197-.08z"/><path fill="#665c70" d="m1131.264 1067.671 7.412 4.976a.544.544 0 0 0 .847-.451v-9.927a.544.544 0 0 0-.846-.452l-7.412 4.951a.543.543 0 0 0-.001.903zm105.352 0-7.412 4.976a.544.544 0 0 1-.847-.451v-9.927c0-.434.484-.693.846-.452l7.412 4.951a.543.543 0 0 1 .001.903zM1202.688 1069.395h-37.497a.314.314 0 0 1-.313-.313v-3.701c0-.172.141-.313.313-.313h37.497c.172 0 .313.141.313.313v3.701a.313.313 0 0 1-.313.313z"/><path fill="#55de58" d="M1111.918 1258.177c-2.325 2.01-4.503.881-6.967 1.674-10.82 3.485-.392 16.458-6.16 19.253-2.065 1-4.685.212-6.937 1.516-6.655 3.856-4.844 10.179-5.769 15.18-2.137 11.559-16.66 15.866-24.742 7.286-9.328-9.902-4.567-22.75 1.314-26.723l8.623-5.826c12.623-8.529-3.593-9.494 10.881-15.469 10.508-4.338 14.729-18.239 26.896-18.384 2.964-.035 5.942 1.206 7.666 3.617 4.001 5.598-2.148 15.578-4.805 17.876z"/><path fill="#50cb52" d="M1095.927 1262.224c-31.586 22.517-40.812 66.479-46.008 64.307a2.2 2.2 0 0 1-1.181-2.877c.826-1.244 19.374-43.913 47.189-61.43z"/><path fill="#6ee371" d="M1065.847 1207.958c.252 2.302.496 4.659-.065 6.905-.892 3.573-3.806 3.969-5.673 6.445-1.828 2.424-2.193 6.352-1.046 9.094 1.554 3.752 10.675 9.715 8.286 14.021-1.333 2.404-4.446 3.438-5.753 6.27-1.232 2.669-1.571 5.779-.726 8.613 1.113 3.729 3.917 6.704 5.541 10.24 2.654 5.782 1.778 13.022-2.179 18.004-3.957 4.982-10.811 7.474-17.044 6.197-2.459-.504-4.773-1.533-7.066-2.555a15.66 15.66 0 0 1-8.221-8.633l-1.814-4.67a15.659 15.659 0 0 1-.04-11.236l4.433-11.656c1.29-3.392 2.469-7.57.139-10.353-.891-1.065-2.203-1.759-2.927-2.944-.901-1.475-.678-3.404.026-4.983.705-1.578 1.83-2.924 2.757-4.383 3.217-5.063 3.934-11.257 4.789-17.194 1.037-7.207 2.604-14.832 8.891-19.368 2.88-2.078 6.654-2.916 10.007-1.741 6.11 2.142 7.074 8.356 7.685 13.927z"/><path fill="#50cb52" d="M1052.903 1229.855c-9.637 27.393-4.981 63.326 1.264 91.604.751 3.401-4.393 4.542-5.146 1.136-2.126-19.623-9.849-59.861 3.882-92.74z"/><path fill="#55de58" d="M975.42 1270.806c2.74 1.519 4.677-.063 7.301.213 11.523 1.214 3.834 16.338 10.173 17.92 2.269.566 4.719-.769 7.238.062 7.446 2.455 6.962 9.142 8.93 13.938 4.55 11.085 19.939 12.344 26.208 2.094 7.237-11.834-.2-23.651-6.9-26.386l-9.821-4.009c-14.378-5.869 1.598-10.223-14.091-13.157-11.39-2.13-18.51-15.115-30.678-12.715-2.964.585-5.676 2.446-6.891 5.212-2.822 6.421 5.399 15.091 8.531 16.828z"/><path fill="#50cb52" d="M992.219 1271.499c22.629 9.907 42.273 33.66 56.234 53.956 1.679 2.441 5.375-.096 3.693-2.54-11.005-12.739-31.551-40.886-59.927-51.416z"/><path fill="#cd8671" d="m1090.797 1327.614-10.251 52.918c-.45 2.251-2.424 3.914-4.745 3.914h-43.152c-2.32 0-4.294-1.662-4.745-3.914l-10.251-52.918c-.104-.519.277-1.039.831-1.039h71.481c.555 0 .97.52.832 1.039z"/><path fill="#c7775f" d="M1094.137 1322.688v7.8a2.028 2.028 0 0 1-2.033 2.033h-75.723a2.075 2.075 0 0 1-2.06-2.06v-7.773c0-1.126.934-2.06 2.06-2.06h75.696a2.076 2.076 0 0 1 2.06 2.06z"/><path fill="#55de58" d="M1251.569 1291.432c-2.353 2.035-7.562-.523-8.875 5.435-.546 2.436 1.93 8.661-.795 9.981-1.521.737-3.451.156-5.11 1.117-4.902 2.841-3.568 7.498-4.249 11.182-1.574 8.515-12.272 11.687-18.226 5.367-6.484-6.884-2.904-14.714-2.987-14.022a9.626 9.626 0 0 1 3.955-5.663l6.352-4.292c9.313-6.292-2.663-6.986 8.015-11.395 7.74-3.196 10.85-13.435 19.812-13.542 8.836-.105 7.922 10.806 2.108 15.832z"/><path fill="#50cb52" d="M1239.79 1294.414c-14.536 10.362-24.907 30.075-31.772 46.5-.826 1.976-3.816.73-2.989-1.249 7.08-12.8 16.595-33.811 34.761-45.251z"/><path fill="#6ee371" d="M1217.631 1254.44c.186 1.695.365 3.432-.048 5.087-.657 2.632-2.803 2.923-4.179 4.748-1.347 1.786-1.615 4.679-.771 6.699 1.145 2.763 7.863 7.156 6.104 10.329-.982 1.771-3.275 2.533-4.238 4.618-.908 1.966-1.158 4.257-.535 6.345.82 2.747 2.886 4.938 4.082 7.543 1.955 4.259 1.31 9.593-1.605 13.262-2.915 3.67-7.964 5.505-12.555 4.565-1.811-.371-3.516-1.129-5.205-1.882a11.537 11.537 0 0 1-6.056-6.359l-1.336-3.44a11.535 11.535 0 0 1-.029-8.277l3.265-8.586c.95-2.499 1.819-5.576.103-7.626-.656-.784-1.623-1.295-2.156-2.168-.664-1.087-.499-2.508.02-3.67.519-1.163 1.348-2.154 2.031-3.229 2.37-3.729 2.898-8.292 3.528-12.666.764-5.309 1.918-10.926 6.549-14.267 2.122-1.531 4.902-2.148 7.371-1.283 4.501 1.576 5.211 6.154 5.66 10.257z"/><path fill="#50cb52" d="M1208.097 1270.57c-7.099 20.178-3.669 46.647.931 67.477.553 2.506-3.236 3.346-3.79.837-1.884-17.376-7.065-44.551 2.859-68.314z"/><path fill="#55de58" d="M1151.021 1300.735c2.018 1.119 3.445-.047 5.378.157 8.488.894 2.824 12.035 7.494 13.2 2.108.526 6.462-1.942 9.588 3.396 1.625 2.775 1.753 12.838 11.501 13.617 13.716 1.096 16.292-20.003 5.044-24.594-8.581-3.502-11.669-4.34-12.037-7.316-1.045-8.447-1.837-.978-15.502-10.487-3.745-2.606-7.908-5.149-12.674-4.208-2.184.431-4.181 1.802-5.076 3.839-2.079 4.731 3.977 11.117 6.284 12.396z"/><path fill="#50cb52" d="M1163.395 1301.246c16.669 7.298 31.139 24.795 41.423 39.746 1.237 1.798 3.959-.07 2.72-1.871-9.743-11.293-23.62-30.259-44.143-37.875z"/><path fill="#cd8671" d="m1236.01 1342.582-7.551 38.981c-.332 1.658-1.786 2.883-3.495 2.883h-31.787c-1.709 0-3.163-1.225-3.495-2.883l-7.551-38.981a.634.634 0 0 1 .612-.765h52.654c.409 0 .715.382.613.765z"/><path fill="#c7775f" d="M1238.471 1338.954v5.746c0 .83-.668 1.497-1.497 1.497h-55.78a1.528 1.528 0 0 1-1.517-1.517v-5.726c0-.83.688-1.517 1.517-1.517h55.76a1.527 1.527 0 0 1 1.517 1.517z"/><path fill="#ecf0fd" d="M1267.764 547.818v137.253c0 5.857-6.683 9.204-11.374 5.696l-45.107-33.739a7.111 7.111 0 0 0-4.26-1.417H843.955a9.381 9.381 0 0 1-9.381-9.381v-93.885c0-5.181 4.2-9.381 9.381-9.381h421.541c1.253-.001 2.268 1.014 2.268 4.854z"/><path fill="#3e60d3" d="M928.19 621.263c-2.805-1.135-5.063-2.846-6.773-5.124-1.71-2.285-2.609-5.042-2.704-8.28 0-.406.142-.757.412-1.054.277-.297.642-.446 1.095-.446h6.631c1.048 0 1.71.568 1.987 1.71.365 2.373 1.332 4.123 2.906 5.266 1.568 1.136 3.562 1.71 5.982 1.71 2.825 0 5.002-.926 6.529-2.771 1.528-1.845 2.291-4.434 2.291-7.76v-21.887h-23.184c-.453 0-.838-.155-1.163-.473-.318-.324-.473-.73-.473-1.237v-4.853c0-.5.155-.899.473-1.196a1.66 1.66 0 0 1 1.163-.446h31.39c.5 0 .899.162 1.196.48.297.318.446.73.446 1.23v28.653c0 3.785-.777 7.043-2.325 9.781-1.555 2.731-3.752 4.819-6.597 6.252-2.852 1.44-6.192 2.156-10.024 2.156-3.371-.001-6.46-.569-9.258-1.711zm42.361-3.008c-3.468-3.143-5.293-7.814-5.475-14.019a197.942 197.942 0 0 1-.068-5.813c0-2.596.027-4.556.068-5.881.182-6.063 2.055-10.714 5.61-13.951 3.555-3.231 8.368-4.853 14.431-4.853 6.016 0 10.815 1.622 14.391 4.853 3.582 3.238 5.461 7.888 5.644 13.951.088 2.643.135 4.61.135 5.881 0 1.23-.047 3.17-.135 5.813-.182 6.205-2.021 10.876-5.509 14.019-3.488 3.143-8.328 4.718-14.526 4.718-6.252 0-11.106-1.575-14.566-4.718zm21.812-5.948c1.778-1.825 2.737-4.623 2.873-8.409.088-2.737.135-4.583.135-5.543 0-1.048-.047-2.893-.135-5.536-.135-3.738-1.122-6.529-2.94-8.381-1.825-1.845-4.218-2.765-7.178-2.765-3.015 0-5.428.919-7.253 2.765-1.825 1.852-2.778 4.644-2.873 8.381-.04 1.318-.068 3.17-.068 5.536 0 2.325.027 4.17.068 5.543.095 3.738 1.041 6.53 2.839 8.375 1.805 1.845 4.231 2.771 7.286 2.771 3.048 0 5.468-.912 7.246-2.737zm22.292 9.503a1.58 1.58 0 0 1-.48-1.163v-44.584c0-.5.162-.899.48-1.196a1.637 1.637 0 0 1 1.163-.446h6.563c.5 0 .899.149 1.196.446.297.297.446.696.446 1.196v44.584c0 .46-.149.845-.446 1.163-.297.318-.696.48-1.196.48h-6.563a1.58 1.58 0 0 1-1.163-.48zm20.515 0a1.58 1.58 0 0 1-.48-1.163V576.13c0-.5.149-.913.446-1.23.298-.318.696-.48 1.196-.48h5.333c.865 0 1.528.392 1.98 1.163l19.562 30.363v-29.815c0-.5.149-.913.439-1.23.297-.318.696-.48 1.203-.48h5.88c.5 0 .906.162 1.23.48.318.318.473.73.473 1.23v44.449c0 .5-.156.913-.473 1.23-.324.318-.71.48-1.163.48h-5.407c-.912 0-1.595-.385-2.048-1.163l-19.487-29.68v29.2c0 .46-.149.845-.446 1.163-.297.318-.696.48-1.196.48h-5.881c-.458 0-.844-.162-1.161-.48zm68.174-3.555c-3.42-3.143-5.13-7.908-5.13-14.289v-27.835c0-.5.149-.913.446-1.23s.696-.48 1.196-.48h6.293c.5 0 .912.162 1.23.48s.48.73.48 1.23v27.835c0 3.603.852 6.313 2.562 8.138 1.71 1.818 4.137 2.731 7.286 2.731 3.143 0 5.57-.913 7.28-2.731 1.71-1.825 2.562-4.536 2.562-8.138v-27.835c0-.5.162-.913.48-1.23.318-.318.73-.48 1.23-.48h6.293c.5 0 .899.162 1.196.48s.446.73.446 1.23v27.835c0 6.381-1.697 11.146-5.097 14.289-3.393 3.143-8.172 4.718-14.323 4.718-6.204 0-11.01-1.575-14.43-4.718zm50.262 2.873c-2.92-1.23-5.13-2.846-6.638-4.853-1.501-2.008-2.298-4.198-2.393-6.563 0-.365.135-.696.412-.994.27-.297.615-.446 1.027-.446h6.219c.5 0 .913.115 1.23.345.318.23.615.548.892.953.453 1.555 1.494 2.852 3.109 3.9 1.622 1.048 3.839 1.575 6.672 1.575 3.19 0 5.59-.541 7.212-1.609 1.615-1.068 2.427-2.542 2.427-4.414 0-1.23-.412-2.251-1.23-3.076-.825-.818-2.062-1.534-3.724-2.156-1.67-.615-4.144-1.352-7.422-2.217-5.38-1.277-9.321-2.967-11.829-5.063-2.508-2.095-3.765-5.103-3.765-9.024 0-2.643.73-5.002 2.19-7.077s3.542-3.704 6.259-4.894c2.711-1.183 5.867-1.778 9.47-1.778 3.785 0 7.05.662 9.814 1.987 2.758 1.318 4.853 2.974 6.286 4.955 1.44 1.981 2.203 3.954 2.291 5.914 0 .365-.135.696-.406.994a1.353 1.353 0 0 1-1.027.446h-6.496c-1.007 0-1.69-.412-2.055-1.237-.23-1.453-1.115-2.677-2.663-3.657-1.555-.98-3.467-1.467-5.745-1.467-2.508 0-4.481.48-5.914 1.433-1.44.96-2.156 2.352-2.156 4.17 0 1.23.365 2.258 1.095 3.082.73.818 1.865 1.534 3.42 2.15 1.548.615 3.806 1.311 6.766 2.089 4.062.913 7.286 1.94 9.679 3.076 2.393 1.142 4.157 2.575 5.299 4.306 1.136 1.737 1.71 3.947 1.71 6.638 0 2.961-.811 5.529-2.427 7.692-1.622 2.163-3.9 3.819-6.84 4.955-2.94 1.142-6.347 1.71-10.22 1.71-4.1 0-7.615-.615-10.529-1.845z"/><path fill="#463f4c" d="M867.164 598.359H856.72a.882.882 0 0 1-.882-.882V421.438c0-.487.395-.882.882-.882h10.444c.487 0 .882.395.882.882v176.039a.882.882 0 0 1-.882.882z"/><path fill="#ff7843" d="M981.17 513.615c1.103 1.653-.11 3.968-2.095 3.968H870.576c-1.434 0-2.537-1.104-2.537-2.536v-85.896c0-1.324 1.103-2.536 2.537-2.536h108.499c1.985 0 3.198 2.315 2.095 3.968l-22.2 41.575 22.2 41.457z"/></svg>